<?xml version="1.0" encoding="UTF-8"?><svg xmlns="http://www.w3.org/2000/svg" xmlns:xlink="http://www.w3.org/1999/xlink" viewBox="0 0 50 50" version="1.1"><path d="M36 2c-.43 0-.863.016-1.281.063-.114.011-.23.046-.344.062-.305.04-.61.094-.906.156-.114.024-.2.035-.313.063-.293.07-.59.156-.875.25-.093.031-.187.058-.281.094-.3.109-.617.242-.906.374-.07.032-.117.063-.188.094a12.4 12.4 0 0 0-.906.469c-.047.027-.11.066-.156.094a11.66 11.66 0 0 0-.907.594c-.023.019-.039.042-.062.062-.313.234-.617.488-.906.75-.008.008-.024-.008-.032 0-.3.273-.574.574-.843.875C25.187 8.125 24 10.926 24 14c0 4.148 2.137 6.992 4.406 10 .824 1.094 1.703 2.246 2.532 3.531 1.785 2.242 3.433 4.88 4.343 8.375.14.543.137.969.375 1.157.11.023.215.03.344.03.129 0 .234-.011.344-.03.238-.188.234-.614.375-1.157.91-3.496 2.558-6.133 4.343-8.375.829-1.285 1.708-2.441 2.532-3.531.14-.184.27-.379.406-.563.215-.285.418-.558.625-.843.098-.133.184-.274.281-.407.157-.222.317-.433.469-.656.11-.164.207-.336.313-.5.132-.203.285-.386.406-.593.11-.184.21-.375.312-.563.11-.195.215-.395.313-.594.101-.203.191-.418.281-.625.086-.191.176-.398.25-.593.09-.231.145-.45.219-.688.058-.188.136-.371.187-.563.07-.28.106-.582.157-.875.027-.164.074-.3.093-.468A11.9 11.9 0 0 0 48 14c0-6.617-5.383-12-12-12zM6.344 6A4.355 4.355 0 0 0 2 10.344v33.312c0 .227.027.438.063.657C2.382 46.386 4.18 48 6.343 48h33.313c.227 0 .438-.027.657-.063A4.336 4.336 0 0 0 43.968 44H44V26.781a38.55 38.55 0 0 0-1.25 1.813l-.125.187c-2.027 2.547-3.258 4.895-3.969 7.625-.031.117-.043.211-.062.313-.078.406-.223 1.054-.688 1.593L42 42.407v1.25A2.356 2.356 0 0 1 39.656 46h-1.25L24.344 31.969l3.593-3.657 3.563 3.594a23.813 23.813 0 0 0-2.125-3.125l-.125-.187c-.582-.903-1.172-1.692-1.75-2.469L7.594 46h-1.25A2.356 2.356 0 0 1 4 43.656v-1.25l20.469-20.5C23.059 19.672 22 17.184 22 14c0-2.973.941-5.73 2.531-8zm5.781 4a6.04 6.04 0 0 1 4.094 1.594L14.5 13.313a3.614 3.614 0 0 0-2.375-.876 3.69 3.69 0 0 0-3.688 3.688 3.69 3.69 0 0 0 3.688 3.688c1.71 0 2.879-1.024 3.313-2.438h-3.313v-2.344h5.75c.504 2.383-.406 7.188-5.75 7.188C8.75 22.219 6 19.5 6 16.125A6.135 6.135 0 0 1 12.125 10zM36 11a3 3 0 1 1-.002 6.002A3 3 0 0 1 36 11z" id="surface1"/><metadata><rdf:RDF xmlns:rdf="http://www.w3.org/1999/02/22-rdf-syntax-ns#" xmlns:rdfs="http://www.w3.org/2000/01/rdf-schema#" xmlns:dc="http://purl.org/dc/elements/1.1/"><rdf:Description about="https://iconscout.com/legal#licenses" dc:title="google,maps,filled" dc:description="google,maps,filled" dc:publisher="Iconscout" dc:date="2017-12-09" dc:format="image/svg+xml" dc:language="en"><dc:creator><rdf:Bag><rdf:li>Icons8</rdf:li></rdf:Bag></dc:creator></rdf:Description></rdf:RDF></metadata></svg>